<svg id="Layer_1" data-name="Layer 1" xmlns="http://www.w3.org/2000/svg" viewBox="10 10 40 40"><defs><style>.cls-1,.cls-2{fill:#ffffff;}.cls-2{fill-rule:evenodd;}</style></defs><title>rocheSVG</title><path class="cls-2" d="M27.78,16.43a5,5,0,0,0,2-.55A6.94,6.94,0,0,1,27.93,18S28.5,26.5,19.8,28.59c0,0-4.41,1-7.61-1.51,0,0,3.35.61,5.23-1.53A3.42,3.42,0,0,1,14.23,23,2.83,2.83,0,0,0,15.69,23,3.58,3.58,0,0,1,13,19.3a2.26,2.26,0,0,0,1.41.46s-2.48-2.17-.94-4.87c0,0,3.32,4,7.43,3.8a3.74,3.74,0,0,1-.11-0.91,3.59,3.59,0,0,1,3.53-3.64,3.48,3.48,0,0,1,2.52,1.09,4,4,0,0,0,2.4-.79S29.29,15.22,27.78,16.43Z"/></svg>